HIERARCHY
ROOT Hips
{
    OFFSET 0.000000 0.000000 0.000000
    CHANNELS 6 Xposition Yposition Zposition Zrotation Xrotation Yrotation
        JOINT Chest
        {
            OFFSET -0.000000 29.765863 -0.000000
            CHANNELS 3 Zrotation Xrotation Yrotation
            JOINT Neck
            {
                OFFSET -0.000000 22.048780 0.000000
                CHANNELS 3 Zrotation Xrotation Yrotation
                JOINT Head
                {
                    OFFSET -0.000000 10.266670 0.000000
                    CHANNELS 3 Zrotation Xrotation Yrotation
                    End Site
                    {
                        OFFSET -0.000000 15.866677 0.000000
                    }
                }
            }
            JOINT LeftCollar
            {
                OFFSET -0.000000 22.048780 0.000000
                CHANNELS 3 Zrotation Xrotation Yrotation
                JOINT LeftShoulder
                {
                    OFFSET 18.666672 -0.000000 0.000000
                    CHANNELS 3 Zrotation Xrotation Yrotation
                    JOINT LeftElbow
                    {
                        OFFSET 23.656216 0.000000 0.000000
                        CHANNELS 3 Zrotation Xrotation Yrotation
                        JOINT LeftWrist
                        {
                            OFFSET 24.590921 0.000000 0.000000
                            CHANNELS 3 Zrotation Xrotation Yrotation
                            End Site
                            {
                                OFFSET 0.000000 -14.000008 0.000000
                            }
                        }
                    }
                }
            }
            JOINT RightCollar
            {
                OFFSET -0.000000 22.048780 0.000000
                CHANNELS 3 Zrotation Xrotation Yrotation
                JOINT RightShoulder
                {
                    OFFSET -18.666672 0.000000 0.000000
                    CHANNELS 3 Zrotation Xrotation Yrotation
                    JOINT RightElbow
                    {
                        OFFSET -23.656216 0.000000 0.000000
                        CHANNELS 3 Zrotation Xrotation Yrotation
                        JOINT RightWrist
                        {
                            OFFSET -24.590921 0.000000 0.000000
                            CHANNELS 3 Zrotation Xrotation Yrotation
                            End Site
                            {
                                OFFSET -0.000000 -14.000008 0.000000
                            }
                        }
                    }
                }
            }
        }
    JOINT LeftHip
    {
        OFFSET 11.200002 0.000000 0.000000
        CHANNELS 3 Zrotation Xrotation Yrotation
        JOINT LeftKnee
        {
            OFFSET -0.000000 -37.692356 0.000000
            CHANNELS 3 Zrotation Xrotation Yrotation
            JOINT LeftAnkle
            {
                OFFSET -0.000000 -39.524944 0.000000
                CHANNELS 3 Zrotation Xrotation Yrotation
                End Site
                {
                    OFFSET -0.000000 -4.666668 15.866677
                }
            }
        }
    }
    JOINT RightHip
    {
        OFFSET -11.200002 0.000000 0.000000
        CHANNELS 3 Zrotation Xrotation Yrotation
        JOINT RightKnee
        {
            OFFSET -0.000000 -37.692356 0.000000
            CHANNELS 3 Zrotation Xrotation Yrotation
            JOINT RightAnkle
            {
                OFFSET -0.000000 -39.524944 0.000000
                CHANNELS 3 Zrotation Xrotation Yrotation
                End Site
                {
                    OFFSET -0.000000 -4.666668 15.866677
                }
            }
        }
    }
}
MOTION
Frames:    6
Frame Time:    0.010000
-102.639481    82.551338    -42.752640    1.446979    2.624008    57.779812    -3.717631    6.866598    -11.160984    1.394579    11.224948    -10.574877    6.499126    -20.202995    -9.897282    -12.984245    0.581195    -5.103985    -51.736286    50.475677    -24.871506    -0.737748    0.310112    -41.856789    111.174362    -4.776556    85.591415    17.109430    -2.312705    -15.026670    -1.616596    60.476635    76.594551    0.922602    0.339906    42.597515    -98.910439    -2.862941    -31.404364    -10.333504    0.990920    -2.957622    0.787675    16.324982    3.864582    17.400530    -17.926991    13.048434    -2.966794    -24.547403    5.342016    0.904450    17.923632    6.835458    11.011784    3.751692    -11.353436    
-102.634857    82.551483    -42.769711    1.436720    2.638863    57.850327    -4.280611    6.549892    -11.191152    1.685068    11.868650    -7.647614    4.034420    -20.457497    -6.571659    -12.658481    0.269988    0.229433    -50.673515    49.968189    -26.189550    -0.373350    0.085500    -42.063286    111.105682    -3.928852    85.152489    17.342304    -1.903089    -9.517767    -0.541467    61.916714    75.478226    1.678623    0.819256    42.842377    -99.396347    -2.694976    -31.412195    -10.342672    0.961074    -2.793133    0.841631    16.357618    3.469175    16.979229    -18.083662    12.930897    -2.999947    -24.539974    5.342101    0.893107    17.901104    6.750956    11.017644    3.748985    -11.344083    
-102.609489    82.534470    -42.773212    1.430803    2.640035    57.890194    -4.321232    6.586420    -11.204814    1.818699    11.796479    -7.562712    4.481731    -20.643181    -6.551820    -12.610641    0.113213    0.357741    -50.501968    50.226387    -26.512085    -0.353619    0.127243    -41.840981    111.020020    -3.589993    84.855217    17.385176    -1.681571    -9.507513    -0.422024    61.645199    75.457321    1.395778    0.530600    42.714729    -99.150215    -2.671550    -31.447849    -10.331463    0.969850    -2.809907    0.812878    16.331472    3.430922    17.209309    -17.989054    13.050040    -3.019581    -24.522272    5.327106    0.888776    17.859896    6.666791    11.055469    3.770421    -11.300080    
-102.607002    82.536491    -42.784245    1.428230    2.644542    57.923744    -4.353538    6.605777    -11.215099    1.883579    11.766009    -7.492687    4.439266    -20.724930    -6.481125    -12.585541    0.027150    0.407944    -50.371517    50.341885    -26.747999    -0.427895    0.147704    -41.776737    111.115700    -3.153032    84.492226    17.423172    -1.569269    -9.511929    -0.267835    61.488281    75.348564    1.221785    0.446275    42.644455    -99.014503    -2.650752    -31.530279    -10.330491    0.965023    -2.765023    0.815930    16.334135    3.308258    17.214041    -17.986177    13.067414    -3.040743    -24.511749    5.319314    0.886497    17.838869    6.611239    11.064693    3.778853    -11.277047    
-102.605797    82.540405    -42.797615    1.425924    2.649678    57.957287    -4.391768    6.627884    -11.216877    1.953434    11.720476    -7.416272    4.392651    -20.793941    -6.403599    -12.556544    -0.021088    0.461489    -50.183022    50.433491    -27.068857    -0.421871    0.168848    -41.754547    111.099403    -2.594138    84.044479    17.454182    -1.511036    -9.520064    -0.083537    61.386356    75.201904    1.128858    0.414526    42.603218    -98.982208    -2.613283    -31.652441    -10.331038    0.958587    -2.721553    0.818031    16.339310    3.188124    17.239090    -17.975815    13.094591    -3.065083    -24.501369    5.308230    0.885143    17.817608    6.555376    11.074016    3.787057    -11.250449    
-102.605095    82.545349    -42.812832    1.423681    2.655614    57.988308    -4.433920    6.648557    -11.206443    2.024512    11.665927    -7.337209    4.353628    -20.849699    -6.323258    -12.526511    -0.048810    0.514201    -49.966358    50.505753    -27.432943    -0.429212    0.137897    -41.767429    111.147316    -1.938769    83.477104    17.482389    -1.475650    -9.535605    0.113321    61.309761    75.038780    1.073304    0.423543    42.578545    -98.952835    -2.572882    -31.804348    -10.334110    0.949089    -2.683541    0.819009    16.349085    3.078721    17.281824    -17.959784    13.130602    -3.091988    -24.492796    5.293419    0.885221    17.797935    6.504130    11.082649    3.794286    -11.222344    
